<svg id="export-svg" width="100%" xmlns="http://www.w3.org/2000/svg" style="max-width: 1195.0166015625px;" viewBox="-87.01666259765625 -18 1195.0166015625 222.71751403808594" role="graphics-document document" aria-roledescription="gitGraph"><style xmlns="http://www.w3.org/1999/xhtml">p {margin: 0;}</style><style>#export-svg{font-family:arial,sans-serif;font-size:14px;fill:#333;}@keyframes edge-animation-frame{from{stroke-dashoffset:0;}}@keyframes dash{to{stroke-dashoffset:0;}}#export-svg .edge-animation-slow{stroke-dasharray:9,5!important;stroke-dashoffset:900;animation:dash 50s linear infinite;stroke-linecap:round;}#export-svg .edge-animation-fast{stroke-dasharray:9,5!important;stroke-dashoffset:900;animation:dash 20s linear infinite;stroke-linecap:round;}#export-svg .error-icon{fill:#ffffff;}#export-svg .error-text{fill:#000000;stroke:#000000;}#export-svg .edge-thickness-normal{stroke-width:2px;}#export-svg .edge-thickness-thick{stroke-width:3.5px;}#export-svg .edge-pattern-solid{stroke-dasharray:0;}#export-svg .edge-thickness-invisible{stroke-width:0;fill:none;}#export-svg .edge-pattern-dashed{stroke-dasharray:3;}#export-svg .edge-pattern-dotted{stroke-dasharray:2;}#export-svg .marker{fill:#000000;stroke:#000000;}#export-svg .marker.cross{stroke:#000000;}#export-svg svg{font-family:arial,sans-serif;font-size:14px;}#export-svg p{margin:0;}#export-svg .commit-id,#export-svg .commit-msg,#export-svg .branch-label{fill:lightgrey;color:lightgrey;font-family:'trebuchet ms',verdana,arial,sans-serif;font-family:var(--mermaid-font-family);}#export-svg .branch-label0{fill:#000000;}#export-svg .commit0{stroke:#000000;}#export-svg .commit-highlight0{stroke:#000000;fill:#000000;}#export-svg .arrow0{stroke:#000000;}#export-svg .commit-bullets{fill:#000000;}#export-svg .commit-cherry-pick0{stroke:#000000;}#export-svg .branch-label1{fill:#333;}#export-svg .commit1{stroke:hsl(240, 22.2222222222%, 67.9411764706%);fill:hsl(240, 22.2222222222%, 67.9411764706%);}#export-svg .commit-highlight1{stroke:rgb(99.9166666666, 99.9166666666, 63.5833333333);fill:rgb(99.9166666666, 99.9166666666, 63.5833333333);}#export-svg .arrow1{stroke:hsl(240, 22.2222222222%, 67.9411764706%);}#export-svg .branch-label2{fill:#333;}#export-svg .commit2{stroke:hsl(60, 90%, 75%);fill:hsl(60, 90%, 75%);}#export-svg .commit-highlight2{stroke:rgb(6.375, 6.375, 121.125);fill:rgb(6.375, 6.375, 121.125);}#export-svg .arrow2{stroke:hsl(60, 90%, 75%);}#export-svg .branch-label3{fill:#333;}#export-svg .commit3{stroke:hsl(210, 90%, 71.0784313725%);fill:hsl(210, 90%, 71.0784313725%);}#export-svg .commit-highlight3{stroke:rgb(140.1250000002, 73.7500000001, 7.375);fill:rgb(140.1250000002, 73.7500000001, 7.375);}#export-svg .arrow3{stroke:hsl(210, 90%, 71.0784313725%);}#export-svg .branch-label4{fill:#333;}#export-svg .commit4{stroke:hsl(180, 90%, 71.0784313725%);fill:hsl(180, 90%, 71.0784313725%);}#export-svg .commit-highlight4{stroke:rgb(140.1250000002, 7.375, 7.375);fill:rgb(140.1250000002, 7.375, 7.375);}#export-svg .arrow4{stroke:hsl(180, 90%, 71.0784313725%);}#export-svg .branch-label5{fill:#333;}#export-svg .commit5{stroke:hsl(150, 90%, 71.0784313725%);fill:hsl(150, 90%, 71.0784313725%);}#export-svg .commit-highlight5{stroke:rgb(140.1250000002, 7.375, 73.7500000001);fill:rgb(140.1250000002, 7.375, 73.7500000001);}#export-svg .arrow5{stroke:hsl(150, 90%, 71.0784313725%);}#export-svg .branch-label6{fill:#333;}#export-svg .commit6{stroke:hsl(300, 90%, 71.0784313725%);fill:hsl(300, 90%, 71.0784313725%);}#export-svg .commit-highlight6{stroke:rgb(7.375, 140.1250000002, 7.375);fill:rgb(7.375, 140.1250000002, 7.375);}#export-svg .arrow6{stroke:hsl(300, 90%, 71.0784313725%);}#export-svg .branch-label7{fill:#333;}#export-svg .commit7{stroke:hsl(0, 90%, 71.0784313725%);fill:hsl(0, 90%, 71.0784313725%);}#export-svg .commit-highlight7{stroke:rgb(7.375, 140.1250000002, 140.1250000002);fill:rgb(7.375, 140.1250000002, 140.1250000002);}#export-svg .arrow7{stroke:hsl(0, 90%, 71.0784313725%);}#export-svg .branch{stroke-width:2;stroke:#000000;stroke-dasharray:4 2;}#export-svg .commit-label{font-size:10px;fill:#000000;font-weight:normal;}#export-svg .commit-label-bkg{font-size:10px;fill:transparent;}#export-svg .tag-label{font-size:10px;fill:#333;}#export-svg .tag-label-bkg{fill:#ffffff;stroke:#000000;filter:drop-shadow( 0px 1px 2px rgba(0, 0, 0, 0.25));}#export-svg .tag-hole{fill:#333;}#export-svg .commit-merge{stroke:#ffffff;fill:#ffffff;}#export-svg .commit-reverse{stroke:#ffffff;fill:#ffffff;stroke-width:2;}#export-svg .commit-highlight-inner{stroke:#ffffff;fill:#ffffff;}#export-svg .arrow{stroke-width:8;stroke-linecap:round;fill:none;}#export-svg .gitTitleText{text-anchor:middle;font-size:18px;fill:#333;}#export-svg .node .neo-node{stroke:#000000;}#export-svg [data-look="neo"].node rect,#export-svg [data-look="neo"].cluster rect,#export-svg [data-look="neo"].node polygon{stroke:url(#export-svg-gradient);filter:drop-shadow( 0px 1px 2px rgba(0, 0, 0, 0.25));}#export-svg [data-look="neo"].node path{stroke:url(#export-svg-gradient);stroke-width:2;}#export-svg [data-look="neo"].node .outer-path{filter:drop-shadow( 0px 1px 2px rgba(0, 0, 0, 0.25));}#export-svg [data-look="neo"].node .neo-line path{stroke:#000000;filter:none;}#export-svg [data-look="neo"].node circle{stroke:url(#export-svg-gradient);filter:drop-shadow( 0px 1px 2px rgba(0, 0, 0, 0.25));}#export-svg [data-look="neo"].node circle .state-start{fill:#000000;}#export-svg [data-look="neo"].statediagram-cluster rect{fill:#ffffff;stroke:url(#export-svg-gradient);stroke-width:2;}#export-svg [data-look="neo"].icon-shape .icon{fill:url(#export-svg-gradient);filter:drop-shadow( 0px 1px 2px rgba(0, 0, 0, 0.25));}#export-svg [data-look="neo"].icon-shape .icon-neo path{stroke:url(#export-svg-gradient);filter:drop-shadow( 0px 1px 2px rgba(0, 0, 0, 0.25));}#export-svg .label0{fill:#ffffff;stroke:url(#export-svg-gradient);stroke-width:2;}#export-svg .label1{fill:#ffffff;stroke:url(#export-svg-gradient);stroke-width:2;}#export-svg .label2{fill:#ffffff;stroke:url(#export-svg-gradient);stroke-width:2;}#export-svg .label3{fill:#ffffff;stroke:url(#export-svg-gradient);stroke-width:2;}#export-svg .label4{fill:#ffffff;stroke:url(#export-svg-gradient);stroke-width:2;}#export-svg .label5{fill:#ffffff;stroke:url(#export-svg-gradient);stroke-width:2;}#export-svg .label6{fill:#ffffff;stroke:url(#export-svg-gradient);stroke-width:2;}#export-svg .label7{fill:#ffffff;stroke:url(#export-svg-gradient);stroke-width:2;}#export-svg .label8{fill:#ffffff;stroke:url(#export-svg-gradient);stroke-width:2;}#export-svg .label9{fill:#ffffff;stroke:url(#export-svg-gradient);stroke-width:2;}#export-svg .label10{fill:#ffffff;stroke:url(#export-svg-gradient);stroke-width:2;}#export-svg .label11{fill:#ffffff;stroke:url(#export-svg-gradient);stroke-width:2;}#export-svg :root{--mermaid-font-family:"trebuchet ms",verdana,arial,sans-serif;}</style><g/><g class="commit-bullets"/><g class="commit-labels"/><g><line x1="0" y1="0" x2="1100" y2="0" class="branch branch0"/><rect data-look="neo" class="branchLabelBkg label0" style="filter:drop-shadow( 0px 1px 2px rgba(0, 0, 0, 0.25));" rx="4" ry="4" x="-34.35000038146973" y="0" width="48.35000038146973" height="20" transform="translate(-19, -8)"/><g class="branchLabel"><g class="label branch-label0" transform="translate(-44.35000038146973, -9)"><text><tspan xml:space="preserve" dy="1em" x="0" class="row">main</tspan></text></g></g><line x1="0" y1="90" x2="1100" y2="90" class="branch branch1"/><rect data-look="neo" class="branchLabelBkg label1" style="filter:drop-shadow( 0px 1px 2px rgba(0, 0, 0, 0.25));" rx="4" ry="4" x="-60.016666412353516" y="0" width="74.01666641235352" height="20" transform="translate(-19, 82)"/><g class="branchLabel"><g class="label branch-label1" transform="translate(-70.01666641235352, 81)"><text><tspan xml:space="preserve" dy="1em" x="0" class="row">feature-2</tspan></text></g></g><line x1="0" y1="180" x2="1100" y2="180" class="branch branch2"/><rect data-look="neo" class="branchLabelBkg label2" style="filter:drop-shadow( 0px 1px 2px rgba(0, 0, 0, 0.25));" rx="4" ry="4" x="-60.016666412353516" y="0" width="74.01666641235352" height="20" transform="translate(-19, 172)"/><g class="branchLabel"><g class="label branch-label2" transform="translate(-70.01666641235352, 171)"><text><tspan xml:space="preserve" dy="1em" x="0" class="row">feature-1</tspan></text></g></g></g><g class="commit-arrows"><path d="M 810 0 L 960 0" class="arrow arrow0"/><path d="M 960 0 L 960 70 A 20 20, 0, 0, 0, 980 90 L 10 90" class="arrow arrow1"/><path d="M 10 90 L 10 160 A 20 20, 0, 0, 0, 30 180 L 60 180" class="arrow arrow2"/><path d="M 960 0 L 40 0 A 20 20, 0, 0, 1, 60 20 L 60 180" class="arrow arrow0"/><path d="M 60 180 L 110 180" class="arrow arrow2"/><path d="M 260 180 L 310 180" class="arrow arrow2"/><path d="M 310 180 L 310 20 A 20 20, 0, 0, 1, 330 0 L 160 0" class="arrow arrow0"/><path d="M 10 90 L 140 90 A 20 20, 0, 0, 0, 160 70 L 160 0" class="arrow arrow1"/><path d="M 160 0 L 210 0" class="arrow arrow0"/><path d="M 110 180 L 190 180 A 20 20, 0, 0, 0, 210 160 L 210 0" class="arrow arrow2"/><path d="M 110 180 L 260 180" class="arrow arrow2"/><path d="M 210 0 L 240 0 A 20 20, 0, 0, 1, 260 20 L 260 180" class="arrow arrow0"/><path d="M 310 180 L 360 180" class="arrow arrow2"/><path d="M 10 90 L 10 125 A 10 10, 0, 0, 0, 20 135 L 350 135 A 10 10, 0, 0, 1, 360 145 L 360 180" class="arrow arrow1"/><path d="M 360 180 L 410 180" class="arrow arrow2"/><path d="M 10 90 L 460 90" class="arrow arrow1"/><path d="M 410 180 L 440 180 A 20 20, 0, 0, 0, 460 160 L 460 90" class="arrow arrow2"/><path d="M 210 0 L 510 0" class="arrow arrow0"/><path d="M 460 90 L 560 90" class="arrow arrow1"/><path d="M 510 0 L 540 0 A 20 20, 0, 0, 1, 560 20 L 560 90" class="arrow arrow0"/><path d="M 560 90 L 610 90" class="arrow arrow1"/><path d="M 410 180 L 590 180 A 20 20, 0, 0, 0, 610 160 L 610 90" class="arrow arrow2"/><path d="M 610 90 L 660 90" class="arrow arrow1"/><path d="M 410 180 L 710 180" class="arrow arrow2"/><path d="M 660 90 L 690 90 A 20 20, 0, 0, 1, 710 110 L 710 180" class="arrow arrow1"/><path d="M 710 180 L 760 180" class="arrow arrow2"/><path d="M 510 0 L 510 62 A 10 10, 0, 0, 0, 520 72 L 750 72 A 10 10, 0, 0, 1, 760 82 L 760 180" class="arrow arrow0"/><path d="M 510 0 L 810 0" class="arrow arrow0"/><path d="M 760 180 L 790 180 A 20 20, 0, 0, 0, 810 160 L 810 0" class="arrow arrow2"/><path d="M 660 90 L 860 90" class="arrow arrow1"/><path d="M 810 0 L 840 0 A 20 20, 0, 0, 1, 860 20 L 860 90" class="arrow arrow0"/><path d="M 860 90 L 910 90" class="arrow arrow1"/><path d="M 760 180 L 890 180 A 20 20, 0, 0, 0, 910 160 L 910 90" class="arrow arrow2"/><path d="M 960 0 L 1010 0" class="arrow arrow0"/><path d="M 760 180 L 990 180 A 20 20, 0, 0, 0, 1010 160 L 1010 0" class="arrow arrow2"/><path d="M 1010 0 L 1060 0" class="arrow arrow0"/><path d="M 910 90 L 1040 90 A 20 20, 0, 0, 0, 1060 70 L 1060 0" class="arrow arrow1"/></g><g class="commit-bullets"><circle cx="10" cy="90" r="10" class="commit    commit1"/><circle cx="60" cy="180" r="10" class="commit 3-231460b commit2"/><circle cx="60" cy="180" r="6" class="commit commit-merge 3-231460b commit2"/><circle cx="110" cy="180" r="10" class="commit     commit2"/><circle cx="160" cy="0" r="10" class="commit 6-73f0e53 commit0"/><circle cx="160" cy="0" r="6" class="commit commit-merge 6-73f0e53 commit0"/><circle cx="210" cy="0" r="10" class="commit 7-e0cc20a commit0"/><circle cx="210" cy="0" r="6" class="commit commit-merge 7-e0cc20a commit0"/><circle cx="260" cy="180" r="10" class="commit 8-a7da28d commit2"/><circle cx="260" cy="180" r="6" class="commit commit-merge 8-a7da28d commit2"/><circle cx="310" cy="180" r="10" class="commit      commit2"/><circle cx="360" cy="180" r="10" class="commit 10-4446fd1 commit2"/><circle cx="360" cy="180" r="6" class="commit commit-merge 10-4446fd1 commit2"/><circle cx="410" cy="180" r="10" class="commit       commit2"/><circle cx="460" cy="90" r="10" class="commit 12-8e5766e commit1"/><circle cx="460" cy="90" r="6" class="commit commit-merge 12-8e5766e commit1"/><circle cx="510" cy="0" r="10" class="commit         commit0"/><circle cx="560" cy="90" r="10" class="commit 14-2685355 commit1"/><circle cx="560" cy="90" r="6" class="commit commit-merge 14-2685355 commit1"/><circle cx="610" cy="90" r="10" class="commit 15-519e0aa commit1"/><circle cx="610" cy="90" r="6" class="commit commit-merge 15-519e0aa commit1"/><circle cx="660" cy="90" r="10" class="commit        commit1"/><circle cx="710" cy="180" r="10" class="commit 17-645ab6f commit2"/><circle cx="710" cy="180" r="6" class="commit commit-merge 17-645ab6f commit2"/><circle cx="760" cy="180" r="10" class="commit 18-a3b1afa commit2"/><circle cx="760" cy="180" r="6" class="commit commit-merge 18-a3b1afa commit2"/><circle cx="810" cy="0" r="10" class="commit 19-0a8a38f commit0"/><circle cx="810" cy="0" r="6" class="commit commit-merge 19-0a8a38f commit0"/><circle cx="860" cy="90" r="10" class="commit 20-82f9fc5 commit1"/><circle cx="860" cy="90" r="6" class="commit commit-merge 20-82f9fc5 commit1"/><circle cx="910" cy="90" r="10" class="commit 21-02a104a commit1"/><circle cx="910" cy="90" r="6" class="commit commit-merge 21-02a104a commit1"/><circle cx="960" cy="0" r="10" class="commit   commit0"/><circle cx="1010" cy="0" r="10" class="commit 23-64abec3 commit0"/><circle cx="1010" cy="0" r="6" class="commit commit-merge 23-64abec3 commit0"/><circle cx="1060" cy="0" r="10" class="commit 24-f5c0f1d commit0"/><circle cx="1060" cy="0" r="6" class="commit commit-merge 24-f5c0f1d commit0"/></g><g class="commit-labels"><g transform="translate(-11.3, 10) rotate(-45, 0, 90)"><rect class="commit-label-bkg" x="8" y="103.5" width="4" height="4"/><text x="10" y="115" class="commit-label">  </text></g><g transform="translate(-11.3, 10) rotate(-45, 100, 180)"><rect class="commit-label-bkg" x="108" y="193.5" width="4" height="4"/><text x="110" y="205" class="commit-label">   </text></g><g transform="translate(-11.3, 10) rotate(-45, 300, 180)"><rect class="commit-label-bkg" x="308" y="193.5" width="4" height="4"/><text x="310" y="205" class="commit-label">    </text></g><g transform="translate(-11.3, 10) rotate(-45, 400, 180)"><rect class="commit-label-bkg" x="408" y="193.5" width="4" height="4"/><text x="410" y="205" class="commit-label">     </text></g><g transform="translate(-11.3, 10) rotate(-45, 500, 0)"><rect class="commit-label-bkg" x="508" y="13.5" width="4" height="4"/><text x="510" y="25" class="commit-label">       </text></g><g transform="translate(-11.3, 10) rotate(-45, 650, 90)"><rect class="commit-label-bkg" x="658" y="103.5" width="4" height="4"/><text x="660" y="115" class="commit-label">      </text></g><g transform="translate(-11.3, 10) rotate(-45, 950, 0)"><rect class="commit-label-bkg" x="958" y="13.5" width="4" height="4"/><text x="960" y="25" class="commit-label"> </text></g></g><linearGradient id="export-svg-gradient" gradientUnits="objectBoundingBox" x1="0%" y1="0%" x2="100%" y2="0%"><stop offset="0%" stop-color="#0042eb" stop-opacity="1"/><stop offset="100%" stop-color="#eb0042" stop-opacity="1"/></linearGradient></svg>